<?xml version="1.0" encoding="UTF-8" standalone="no"?>
<!-- Created with Inkscape (http://www.inkscape.org/) -->

<svg
   width="125.58718mm"
   height="148.98805mm"
   viewBox="0 0 125.58718 148.98805"
   version="1.1"
   id="svg1"
   inkscape:version="1.4.2 (1:1.4.2+202505120737+ebf0e940d0)"
   sodipodi:docname="logo.svg"
   inkscape:export-filename="logo.png"
   inkscape:export-xdpi="96"
   inkscape:export-ydpi="96"
   xmlns:inkscape="http://www.inkscape.org/namespaces/inkscape"
   xmlns:sodipodi="http://sodipodi.sourceforge.net/DTD/sodipodi-0.dtd"
   xmlns="http://www.w3.org/2000/svg"
   xmlns:svg="http://www.w3.org/2000/svg">
  <sodipodi:namedview
     id="namedview1"
     pagecolor="#ffffff"
     bordercolor="#000000"
     borderopacity="0.25"
     inkscape:showpageshadow="2"
     inkscape:pageopacity="0.0"
     inkscape:pagecheckerboard="0"
     inkscape:deskcolor="#d1d1d1"
     inkscape:document-units="mm"
     inkscape:zoom="1.08"
     inkscape:cx="245.83333"
     inkscape:cy="315.27778"
     inkscape:window-width="1920"
     inkscape:window-height="1008"
     inkscape:window-x="0"
     inkscape:window-y="0"
     inkscape:window-maximized="1"
     inkscape:current-layer="g1" />
  <defs
     id="defs1">
    <rect
       x="504.17001"
       y="435.95877"
       width="243.18788"
       height="161.63097"
       id="rect12" />
    <rect
       x="387.02463"
       y="455.23587"
       width="206.11656"
       height="181.76414"
       id="rect11" />
    <rect
       x="88.971176"
       y="421.13025"
       width="652.45532"
       height="215.86975"
       id="rect7" />
    <rect
       x="140.87103"
       y="438.92447"
       width="563.48413"
       height="152.73386"
       id="rect6" />
    <rect
       x="54.865559"
       y="464.13297"
       width="714.73511"
       height="140.87103"
       id="rect5" />
    <rect
       x="151.25101"
       y="458.20157"
       width="511.58426"
       height="145.3196"
       id="rect4" />
    <rect
       x="102.31685"
       y="437.44162"
       width="602.03833"
       height="126.0425"
       id="rect3" />
  </defs>
  <g
     inkscape:label="Layer 1"
     inkscape:groupmode="layer"
     id="layer1"
     transform="translate(-43.824943,-4.6891168)">
    <g
       id="g1"
       transform="translate(0.70502805,-3.8508068)">
      <path
         style="fill:#148bd1"
         d="m 73.210421,107.66121 c -0.654844,-0.12694 -2.072035,-0.66518 -3.149314,-1.19608 -4.381224,-2.15915 -9.429978,-8.77232 -12.601934,-16.506798 -4.450084,-10.851053 -5.673075,-23.692305 -3.4142,-35.848651 0.351771,-1.893085 0.640715,-3.471739 0.642099,-3.508119 0.0014,-0.03638 -0.301948,-0.06615 -0.674071,-0.06615 -2.522609,0 -5.144246,-1.766803 -5.144246,-3.466867 0,-2.316424 4.917246,-9.113121 10.626501,-14.688123 3.152609,-3.078475 6.844415,-6.227968 7.172264,-6.118685 0.350677,0.116892 0.873944,1.531914 3.937437,10.647634 1.467143,4.365625 2.824171,8.24356 3.015619,8.617633 0.594383,1.161375 1.461113,4.972137 1.28787,5.662393 -0.203301,0.810015 -1.973427,2.447242 -2.896328,2.678876 -1.30616,0.327825 -3.25535,-0.05125 -4.61748,-0.897994 -0.72334,-0.449653 -1.375536,-0.719868 -1.449323,-0.600478 -0.07379,0.11939 -0.314176,0.975884 -0.534197,1.903321 -0.629702,2.654335 -0.386869,9.351856 0.468843,12.93104 1.381673,5.779112 3.812127,10.722306 7.051269,14.341266 1.397615,1.561497 4.261095,3.724287 7.077753,5.345836 4.101021,2.360955 5.99175,4.995803 6.56769,9.152481 0.202578,1.462055 -0.407025,4.540035 -1.211464,6.116865 -2.290686,4.49012 -6.812156,6.53629 -12.154788,5.5006 z M 149.16672,49.587326 c 0.0127,-0.308225 0.0754,-0.370919 0.15986,-0.159853 0.0764,0.190996 0.067,0.4192 -0.0209,0.507118 -0.0879,0.08792 -0.15046,-0.06835 -0.13897,-0.347265 z M 81.875525,32.881518 c 0.472942,-0.05869 1.246848,-0.05869 1.719791,0 0.472943,0.05869 0.08599,0.106712 -0.859896,0.106712 -0.945885,0 -1.332838,-0.04802 -0.859895,-0.106712 z m 26.210285,-6.074759 c 0.191,-0.07643 0.4192,-0.06703 0.50712,0.02089 0.0879,0.08792 -0.0683,0.150453 -0.34727,0.138965 -0.30822,-0.0127 -0.37092,-0.07539 -0.15985,-0.159853 z M 71.400114,23.8125 c 0,-0.363802 0.06005,-0.51263 0.133452,-0.330729 0.0734,0.181901 0.0734,0.479557 0,0.661458 -0.0734,0.181901 -0.133452,0.03307 -0.133452,-0.330729 z m 2.604057,-9.624895 c 0,-0.05494 0.208359,-0.263302 0.46302,-0.463021 0.419644,-0.329107 0.429003,-0.319749 0.0999,0.0999 -0.345643,0.440729 -0.562915,0.580887 -0.562915,0.363126 z"
         id="path3"
         sodipodi:nodetypes="sssscssssssssssssssssssssssssssssssssssssssss" />
      <path
         style="fill:#fd6f00"
         d="M 108.00313,116.11999 C 103.484,114.84221 87.931396,109.53 87.527719,109.12632 c -0.121914,-0.12191 1.043053,-1.5943 4.175505,-5.27736 3.418915,-4.019888 10.308686,-10.83197 11.626126,-11.495029 2.94703,-1.48322 4.98411,-0.324352 7.09815,4.038043 0.7366,1.520011 0.7571,1.536791 1.67422,1.370706 1.4043,-0.254311 5.98381,-2.515199 8.63026,-4.260729 2.94409,-1.941845 7.50579,-6.428731 9.36294,-9.209371 1.94512,-2.91236 3.61573,-6.561863 4.37634,-9.560268 0.50375,-1.985823 0.65968,-3.359365 0.7142,-6.29109 0.065,-3.497123 0.11973,-3.852381 0.80933,-5.256658 1.67178,-3.404358 4.87575,-5.707226 8.7766,-6.308217 5.56753,-0.85777 11.2311,2.479018 13.26326,7.814277 0.38338,1.006515 0.50112,1.98736 0.49229,4.101042 -0.0101,2.428236 -0.12027,3.094691 -0.87452,5.291666 -3.56441,10.38242 -13.63506,21.517799 -25.04304,27.690758 -5.22663,2.82817 -10.32372,4.75034 -15.74271,5.93677 -1.52797,0.33453 -2.81226,0.62878 -2.85397,0.65387 -0.0417,0.0251 0.16665,0.66084 0.46302,1.41275 0.67693,1.71737 0.7002,3.83307 0.0554,5.03537 -0.99789,1.86067 -3.08925,2.27944 -6.52799,1.30714 z"
         id="path2" />
      <path
         style="fill:#8b5dff;fill-opacity:1"
         d="m 139.88542,49.89898 c -2.40109,-0.781228 -6.2764,-2.031774 -8.6118,-2.77899 -4.76608,-1.524922 -5.98579,-2.274257 -6.50102,-3.99393 -0.50455,-1.684039 0.0846,-3.258023 1.90233,-5.081926 l 1.50593,-1.511075 -1.48991,-1.412075 c -4.31175,-4.086509 -10.20358,-6.935996 -16.59356,-8.025209 -1.92897,-0.328805 -3.53549,-0.402102 -6.55789,-0.299204 -2.20167,0.07496 -4.300695,0.205209 -4.664497,0.28945 -0.363802,0.08424 -1.256771,0.289372 -1.984375,0.455847 -1.927901,0.441099 -4.987191,1.745782 -7.408333,3.159401 -3.345879,1.95354 -4.16672,2.184239 -7.352112,2.066324 -2.540954,-0.09406 -2.902605,-0.177106 -4.752342,-1.091295 -2.469298,-1.220393 -4.396648,-3.212081 -5.242294,-5.417286 -0.784362,-2.045398 -0.854247,-5.90198 -0.145016,-8.002762 1.239009,-3.670016 4.171598,-6.758313 7.76107,-8.173151 3.21823,-1.2685076 9.792353,-1.8668609 15.022361,-1.3672815 15.262568,1.4579065 28.059178,7.1076725 37.819228,16.6973705 l 2.36505,2.323779 1.03923,-0.88954 c 2.78403,-2.383025 6.10957,-2.234495 9.641,0.430601 2.07837,1.568503 2.38587,2.374038 2.5743,6.743724 -0.25851,13.196726 6.75497,20.718813 -8.32735,15.877228 z"
         id="path1"
         sodipodi:nodetypes="sssscssssssssssssscssss" />
      <text
         xml:space="preserve"
         transform="matrix(0.26458333,0,0,0.26458333,-2.6362719,3.8508068)"
         id="text3"
         style="text-align:center;writing-mode:lr-tb;direction:ltr;white-space:pre;shape-inside:url(#rect3);display:inline;fill:#4901ff;fill-opacity:0.597236;stroke-width:2.13543" />
      <text
         xml:space="preserve"
         transform="matrix(0.26458333,0,0,0.26458333,-2.6362719,3.8508068)"
         id="text4"
         style="font-style:normal;font-variant:normal;font-weight:normal;font-stretch:normal;font-size:106.667px;font-family:sans-serif;-inkscape-font-specification:'sans-serif, Normal';font-variant-ligatures:normal;font-variant-caps:normal;font-variant-numeric:normal;font-variant-east-asian:normal;text-align:center;writing-mode:lr-tb;direction:ltr;white-space:pre;shape-inside:url(#rect4);display:inline;fill:#4901ff;fill-opacity:0.597236;stroke-width:2.13543" />
      <text
         xml:space="preserve"
         transform="matrix(0.26458333,0,0,0.26458333,-2.6362719,3.8508068)"
         id="text5"
         style="font-style:normal;font-variant:normal;font-weight:normal;font-stretch:normal;font-size:106.667px;font-family:sans-serif;-inkscape-font-specification:'sans-serif, Normal';font-variant-ligatures:normal;font-variant-caps:normal;font-variant-numeric:normal;font-variant-east-asian:normal;text-align:center;writing-mode:lr-tb;direction:ltr;white-space:pre;shape-inside:url(#rect6);display:inline;fill:#148bd1;fill-opacity:1;stroke-width:2.13543" />
      <text
         xml:space="preserve"
         transform="matrix(0.26458333,0,0,0.26458333,-48.284329,5.5388406)"
         id="text7"
         style="font-style:normal;font-variant:normal;font-weight:normal;font-stretch:normal;font-size:133.333px;font-family:sans-serif;-inkscape-font-specification:'sans-serif, Normal';font-variant-ligatures:normal;font-variant-caps:normal;font-variant-numeric:normal;font-variant-east-asian:normal;text-align:center;writing-mode:lr-tb;direction:ltr;white-space:pre;shape-inside:url(#rect7);display:inline;fill:#148bd1;fill-opacity:1;stroke-width:2.13543"><tspan
           x="332.5318"
           y="542.44724"
           id="tspan1">Dy</tspan></text>
      <text
         xml:space="preserve"
         transform="matrix(0.26458333,0,0,0.26458333,-23.822533,-3.4849374)"
         id="text11"
         style="font-style:normal;font-variant:normal;font-weight:normal;font-stretch:normal;font-size:133.333px;font-family:sans-serif;-inkscape-font-specification:'sans-serif, Normal';font-variant-ligatures:normal;font-variant-caps:normal;font-variant-numeric:normal;font-variant-east-asian:normal;text-align:center;writing-mode:lr-tb;direction:ltr;white-space:pre;shape-inside:url(#rect11);display:inline;fill:#fd6f00;fill-opacity:1;stroke-width:2.13543"><tspan
           x="402.3499"
           y="576.55271"
           id="tspan2">NE</tspan></text>
      <text
         xml:space="preserve"
         transform="matrix(0.26458333,0,0,0.26458333,-17.426442,0.94946363)"
         id="text12"
         style="font-style:normal;font-variant:normal;font-weight:normal;font-stretch:normal;font-size:133.333px;font-family:sans-serif;-inkscape-font-specification:'sans-serif, Normal';font-variant-ligatures:normal;font-variant-caps:normal;font-variant-numeric:normal;font-variant-east-asian:normal;text-align:center;writing-mode:lr-tb;direction:ltr;white-space:pre;shape-inside:url(#rect12);display:inline;fill:#4800ff;fill-opacity:0.596078;stroke-width:2.13543"><tspan
           x="546.56389"
           y="557.27537"
           id="tspan3">CT</tspan></text>
      <path
         style="fill:#8b5dff;fill-opacity:1;stroke-width:1.97725"
         d="m 356.01852,527.84169 c -18.19372,-5.06245 -28.2726,-19.87392 -29.40311,-43.20948 -1.30202,-26.87585 11.15036,-45.93466 33.22066,-50.84541 7.90124,-1.75807 24.88761,-0.78567 31.63601,1.81103 4.72078,1.8165 5.28728,2.30203 4.74381,4.06584 -0.95939,3.11372 -3.13612,7.09564 -3.87856,7.09512 -0.36886,-2.5e-4 -2.96233,-0.91796 -5.76326,-2.03935 -4.07975,-1.63338 -7.02619,-2.04763 -14.81481,-2.08286 -8.82275,-0.0399 -10.21073,0.1959 -15.00242,2.54894 -6.6392,3.26029 -12.9624,10.18765 -15.63402,17.12778 -2.51165,6.5246 -3.47855,22.97983 -1.81978,30.97007 1.54567,7.44546 6.0094,15.84869 10.42756,19.63047 5.75078,4.92245 11.51173,6.54336 22.95459,6.45854 8.47961,-0.0629 11.85735,-0.54904 19.72704,-2.83944 1.48623,-0.43256 1.64016,0.061 1.38888,4.45326 l -0.28259,4.93973 -6.01852,1.5572 c -7.24258,1.87391 -25.29656,2.07954 -31.48148,0.35856 z"
         id="path12"
         transform="matrix(0.26458333,0,0,0.26458333,43.119915,8.5399236)" />
      <path
         style="fill:#8b5dff;fill-opacity:1;stroke-width:1.97725"
         d="m 433.57416,485.87963 -0.24083,-42.36111 -14.58333,-0.255 -14.58333,-0.25499 v -4.60612 -4.60611 h 35.18518 35.18519 v 4.62963 4.62963 h -14.81482 -14.81481 v 42.59259 42.59259 h -5.54622 -5.54621 z"
         id="path13"
         transform="matrix(0.26458333,0,0,0.26458333,43.119915,8.5399236)" />
    </g>
  </g>
</svg>
